<?xml version="1.0" encoding="UTF-8" standalone="no"?>
<!-- Created with Inkscape (http://www.inkscape.org/) -->

<svg
   xmlns:dc="http://purl.org/dc/elements/1.1/"
   xmlns:cc="http://creativecommons.org/ns#"
   xmlns:rdf="http://www.w3.org/1999/02/22-rdf-syntax-ns#"
   xmlns:svg="http://www.w3.org/2000/svg"
   xmlns="http://www.w3.org/2000/svg"
   xmlns:sodipodi="http://sodipodi.sourceforge.net/DTD/sodipodi-0.dtd"
   xmlns:inkscape="http://www.inkscape.org/namespaces/inkscape"
   id="svg2"
   version="1.1"
   inkscape:version="0.48.2 r9819"
   width="355.13013"
   height="173.45552"
   sodipodi:docname="cartoon_bone.svg"
   inkscape:export-filename="C:\Users\mathew\Documents\argypets.com,au\cartoon_bone.png"
   inkscape:export-xdpi="76.273155"
   inkscape:export-ydpi="76.273155">
  <metadata
     id="metadata8">
    <rdf:RDF>
      <cc:Work
         rdf:about="">
        <dc:format>image/svg+xml</dc:format>
        <dc:type
           rdf:resource="http://purl.org/dc/dcmitype/StillImage" />
        <dc:title></dc:title>
      </cc:Work>
    </rdf:RDF>
  </metadata>
  <defs
     id="defs6" />
  <sodipodi:namedview
     pagecolor="#ffffff"
     bordercolor="#666666"
     borderopacity="1"
     objecttolerance="10"
     gridtolerance="10"
     guidetolerance="10"
     inkscape:pageopacity="0"
     inkscape:pageshadow="2"
     inkscape:window-width="1920"
     inkscape:window-height="1058"
     id="namedview4"
     showgrid="false"
     fit-margin-top="2"
     fit-margin-left="2"
     fit-margin-right="2"
     fit-margin-bottom="2"
     inkscape:zoom="2.7037037"
     inkscape:cx="191.86538"
     inkscape:cy="57.244087"
     inkscape:window-x="-8"
     inkscape:window-y="-8"
     inkscape:window-maximized="1"
     inkscape:current-layer="svg2" />
  <path
     style="fill:#e6e5c9"
     d="m 36.263083,170.37588 c 18.104192,-2.19764 33.493956,-15.67747 40.385536,-32.12706 1.64863,-4.43849 2.32111,-9.81029 7.57599,-11.0032 11.30522,-3.76715 23.398961,-5.949 34.987701,-9.21966 49.75992,-12.23713 100.12924,-22.321238 150.66458,-31.415348 17.61805,11.10113 38.62175,23.287198 59.25872,17.929648 10.3009,-2.97857 22.05332,-10.978818 20.99123,-23.325488 -2.32559,-12.35523 -15.95028,-18.98577 -20.38682,-30.4124 0.38971,-9.465813 9.30578,-17.209803 5.27017,-27.256772 C 329.42126,9.9933573 312.4023,2.1001983 298.89733,6.0539313 283.45781,9.8624823 277.47206,26.377773 272.0159,39.569102 c -2.12502,6.52926 -7.13631,11.57898 -13.95654,12.82777 -62.85638,14.44002 -126.50413,26.10377 -190.607881,35.42152 -15.321202,-7.74422 -32.257979,-18.86877 -49.436987,-13.53096 -9.9369666,4.39268 -18.01108563,16.222 -13.3414966,27.967458 2.213292,6.64735 6.4305416,12.45822 10.8990276,17.83383 -3.83675,14.23207 -6.2352386,32.77711 6.204408,44.32475 4.018835,3.60823 9.235066,5.98959 14.486652,5.96241 z"
     id="path3001"
     inkscape:connector-curvature="0" />
  <path
     style="fill:#abab96;fill-opacity:1;stroke:none"
     d="m 345.74179,75.186682 c -8.44895,2.24957 -16.8261,4.8769 -25.81401,4.29119 -10.01421,0.8815 -19.89286,-2.97562 -29.76162,-4.91975 -9.54457,-2.0404 -19.29758,-6.55725 -28.85849,-3.46587 -58.44005,13.40024 -116.95699,26.57359 -175.348981,40.115618 -6.89012,2.83756 -14.47426,4.79735 -20.93025,8.184 -6.512448,8.42002 -10.679902,18.71993 -18.305493,26.11877 -8.597512,5.2807 -18.684553,7.37949 -28.838416,7.79783 3.571516,3.46737 6.556634,8.05061 10.474406,10.85908 5.863522,0.77087 12.072127,4.12965 17.347267,0.48801 6.92495,-1.93721 12.581029,-6.01329 17.946083,-10.57994 4.909483,-3.47778 6.990653,-9.70235 10.088493,-14.72896 2.18442,-4.22231 3.24685,-9.75207 6.10775,-13.18614 39.616701,-9.78656 78.990651,-20.44643 119.071011,-28.565118 23.85484,-5.14227 47.94616,-9.33821 71.90339,-14.07079 10.12739,7.50327 21.81837,12.29028 33.06328,17.510938 7.56234,1.50145 15.12261,2.78522 22.65736,1.38622 4.72152,0.30568 8.70803,-1.33346 12.21095,-4.252178 3.82038,-2.72855 6.98624,-6.80236 9.55815,-10.59375 0.59387,-4.32891 2.52007,-9.01249 -2.16541,-11.93596 l -0.40547,-0.4532 z"
     id="path3785"
     inkscape:connector-curvature="0" />
  <path
     inkscape:connector-curvature="0"
     id="path2993"
     d="m 315.54698,2.8397843 c 9.46265,2.76254 20.93634,12.8311477 22.31877,19.5855807 1.37743,6.729911 0.22111,14.024504 -3.08457,19.459983 -2.23217,3.67024 -2.93039,5.828654 -2.45835,7.599484 0.36261,1.3603 4.01775,6.0641 8.12251,10.45286 8.05437,8.61166 11.3728,14.0211 12.5017,20.37929 1.0752,6.05578 -2.66779,13.81798 -9.05989,18.78845 -7.60314,5.912168 -14.60157,8.049958 -25.32637,7.736368 -12.68612,-0.37088 -24.97639,-4.69615 -40.70329,-14.324388 l -7.67096,-4.69628 -21.20363,3.92541 c -19.58379,3.62552 -28.52409,5.36445 -57.69775,11.222448 -30.71718,6.16795 -105.853301,24.3691 -108.328441,26.24174 -0.64884,0.49091 -1.81163,3.22778 -2.58402,6.08198 -4.38548,16.20609 -25.516644,34.728 -41.151902,36.07053 -9.887376,0.84898 -18.440024,-4.17698 -24.448266,-14.36703 -2.35907,-4.001 -2.832549,-6.07015 -3.342404,-14.60652 -0.436314,-7.3051 -0.172125,-11.63005 0.995295,-16.29181 l 1.589298,-6.34658 -3.186211,-4.05967 C -2.9576446,98.126212 -0.39583663,80.042742 17.097992,71.436122 c 3.218743,-1.58354 5.851846,-1.98148 11.63012,-1.75757 9.705359,0.3761 14.043549,1.74725 28.115339,8.88637 l 11.635798,5.90328 22.74628,-3.42295 c 12.510471,-1.88263 28.324971,-4.37307 35.143361,-5.53433 11.35945,-1.93466 19.05579,-3.33542 58.50051,-10.64733 7.36164,-1.36464 27.92006,-5.64038 45.68536,-9.50165 31.97981,-6.95078 32.33392,-7.05627 35.65994,-10.623507 1.96076,-2.102952 4.68021,-7.113896 6.53193,-12.03589 5.5582,-14.77403 12.91751,-24.2894917 22.03201,-28.4869767 4.85302,-2.23497 15.42622,-2.935386 20.76834,-1.375784 z m -19.68349,7.8925827 c -7.82378,4.425111 -14.3395,14.298062 -19.45248,29.47542 -1.84244,5.469088 -6.16663,10.887425 -10.3333,12.947925 -3.44277,1.70252 -40.09649,10.03082 -57.79395,13.13168 -7.09042,1.24236 -13.16412,2.42106 -13.4971,2.61933 -1.06642,0.63503 -31.45364,6.38071 -51.93358,9.81972 -10.90994,1.83201 -21.84373,3.71558 -24.2973,4.18574 -9.2251,1.76767 -47.956101,7.49496 -50.193541,7.42228 -1.28225,-0.0417 -6.760877,-2.44479 -12.174719,-5.34032 -11.976871,-6.4057 -19.780359,-9.00362 -27.829814,-9.26507 -6.903909,-0.22424 -10.418549,1.16971 -15.012552,5.95418 -9.1503886,9.52975 -7.2200716,20.086638 6.509016,35.597718 4.843822,5.47252 5.414437,6.57945 5.528137,10.72394 0.150933,5.50094 -1.710054,6.24682 -1.954961,0.78356 -0.179689,-4.00826 -1.744394,-6.48038 -3.45392,-5.45695 -3.175807,1.90123 -3.869124,21.73297 -0.994481,28.44642 5.173855,12.08304 16.786554,16.11824 29.267498,10.16991 8.942404,-4.26189 19.045206,-14.04183 23.040266,-22.30394 1.80967,-3.74258 3.55729,-8.60581 3.88359,-10.8072 0.32631,-2.20138 1.11012,-4.39807 1.74182,-4.88154 1.68953,-1.29306 57.993381,-15.14683 92.265281,-22.70223 30.79806,-6.789568 82.853,-17.038238 95.39755,-18.782038 6.83999,-0.95083 7.36763,-0.88333 10.97467,1.40395 7.86685,4.98852 24.13057,12.88923 30.05053,14.59818 23.86536,6.889348 46.30194,-5.91158 39.73342,-22.66942 -0.56099,-1.43126 -4.42842,-6.31085 -8.59428,-10.84356 -4.16585,-4.5327 -7.89198,-9.20068 -8.28028,-10.3733 -1.17865,-3.55938 -2.9982,-1.72463 -3.22067,3.24755 -0.21806,4.87392 -1.46878,6.10493 -2.6324,2.59091 -1.11279,-3.36048 1.19307,-13.23642 4.07077,-17.435037 4.52245,-6.598347 5.83095,-10.045655 5.72344,-15.078688 -0.16004,-7.493156 -3.94625,-12.055802 -14.44054,-17.401986 -7.01872,-3.5756147 -15.53207,-3.4897417 -22.09612,0.222866 z"
     style="fill:#000000" />
</svg>
